<?xml version="1.0" encoding="UTF-8"?>
<svg id="Layer_1" xmlns="http://www.w3.org/2000/svg" version="1.1" viewBox="0 0 80 40">
  <!-- Generator: Adobe Illustrator 29.7.1, SVG Export Plug-In . SVG Version: 2.1.1 Build 8)  -->
  <defs>
    <style>
      .st0, .st1 {
        isolation: isolate;
      }

      .st2 {
        stroke: #020202;
      }

      .st2, .st3 {
        fill: #586ab0;
      }

      .st2, .st3, .st4, .st5 {
        stroke-miterlimit: 10;
      }

      .st2, .st3, .st5 {
        stroke-width: .5px;
      }

      .st3 {
        stroke: #050505;
      }

      .st1 {
        font-family: Oswald-Regular, Oswald;
        font-size: 10px;
      }

      .st4 {
        fill: none;
        stroke: #000;
      }

      .st5 {
        fill: #fff;
        stroke: #231f20;
      }
    </style>
  </defs>
  <g>
    <path class="st2" d="M38.36,23.13l5.59-5.54c0,1.59-.79,2.46-.79,2.46l-.78.34s1.9,1.77.58,1.46-1.85.38-1.85.38c0,0-.23.93-.74.73s-2.02.18-2.02.18h.02Z"/>
    <polygon class="st2" points="1.11 24.9 2.04 25.22 3.67 23.97 2.84 26.95 7.09 20.62 5.98 23.81 6.98 25.68 8.31 22.08 8.84 23.86 9.96 23.39 9.96 23.39 9.64 25.59 10.43 24.4 10.75 22.13 9.45 21.03 10.83 18.49 10.52 16.56 10.89 15.67 9.04 12.93 1.11 24.9"/>
    <path class="st2" d="M22.19,5.94l-.45,1.89,1.47,3.34c-1.28,1.3-1.95-1.51-1.95-1.51,0,0-.87-.31-.75.94.12,1.25,2.25,4.75,2.25,4.75,0,0-2.27-.12-2.78-.42s-1.5,1.51-1.5,1.51l.41,2.58,1.03,2.43s-1.43,1.61-2.29.85-2.97-2.04-2.97-2.04c0,0-.64,2.63-1.43,1.58s-1.17-2.93-1.17-2.93l10.14-12.96h0Z"/>
    <path class="st2" d="M32.29,7.85s1.4,3.13.81,3.12-.05,3.01-.91,1.89-1.07,1.52-1.07,1.52c1.42,2.45-1.31,2.76-1.31,2.76,0,0,1.85,2.76-.05,2.2s-2.33-1.52-2.33-1.52l4.85-9.97h.01Z"/>
    <path class="st5" d="M43.95,17.59l3.92,8.3s-3.92-8.3-3.92-8.3Z"/>
    <path class="st3" d="M23.48,18.47s-1.54.18-.6,1.24,1.3-.21,1.7.82-.4,1.63.28,2.33c.35.36.57.89.7,1.31.18.59.6,1.08,1.16,1.31.46.18.83.11.49-.88-.26-.74-.52-1.18-.74-1.44-.38-.44-.61-.99-.65-1.58-.12-1.86-.97-2.44-.97-2.44l-1.36-.65v-.02Z"/>
  </g>
  <g class="st0">
    <text class="st1" transform="translate(45.31 14.69)"><tspan x="0" y="0">Explore</tspan></text>
  </g>
  <g class="st0">
    <text class="st1" transform="translate(49.27 25.18)"><tspan x="0" y="0">more</tspan></text>
  </g>
  <polyline class="st4" points="1.11 24.9 9.04 12.93 12.69 18.1 22.58 5.17 27.43 17.82 32.61 6.68 37.16 24.31 43.94 17.59 47.87 25.89"/>
</svg>